<svg id="Camada_1" data-name="Camada 1" xmlns="http://www.w3.org/2000/svg" viewBox="0 0 1080 1080"><defs><style>.cls-1{fill:#306;}.cls-2,.cls-3{fill:none;stroke-miterlimit:10;stroke-width:3px;}.cls-2{stroke:#fc671d;}.cls-3{stroke:#0bc0d3;}</style></defs><circle class="cls-1" cx="509.98" cy="549.74" r="339.88"/><path class="cls-2" d="M462.54,723.61C411.86,738.08,204.09,608.9,255.35,543.25,282.11,509,357.78,570.89,404.2,555.11c50.56-17.2,85.3-95.2,119.45-75.46C575.1,509.4,507.47,710.78,462.54,723.61Z"/><circle class="cls-2" cx="369.53" cy="455.09" r="48.38"/><path class="cls-3" d="M560,725.09c50.91,13.65,256.54-118.91,204.22-183.71-27.31-33.83-102,29.31-148.64,14.28-50.83-16.37-86.84-93.8-120.66-73.5C444,512.74,514.87,713,560,725.09Z"/><circle class="cls-3" cx="648.62" cy="455.08" r="48.38"/></svg>